<svg xmlns="http://www.w3.org/2000/svg" viewBox="0 0 230 230"><defs><style>.cls-1{fill:#020202;}.cls-2{fill:#202344;}</style></defs><g id="Object"><path class="cls-1" d="M164.68,43.38c-6.89-2.67-13.85.17-16.55,6.75a12.68,12.68,0,0,0-.79,2.89c0-3.11,0-5.85,0-8V40.64a.57.57,0,0,0-.47-.55,204.11,204.11,0,0,0-63.57,0,.55.55,0,0,0-.47.53c0,.07-.23,5.49-.09,13a12.45,12.45,0,0,0-.88-3.48c-2.7-6.58-9.66-9.42-16.55-6.75-8.54,3.3-6.76,15.27-6,18.86,1.56,7.45,6.18,14.21,14.56,21.27.78.66,1.59,1.32,2.47,2,.65.51,1.31,1,2,1.52,2.43,1.77,4.73,3.44,5.81,6a5.9,5.9,0,0,1-.34,5A4,4,0,0,1,79,100.2c-1.14-.4-3.46-1.84-2.91-3.51A2.09,2.09,0,0,0,76,95.1a2.06,2.06,0,0,0-1.21-1,2.09,2.09,0,0,0-1.59.12,2,2,0,0,0-1,1.21c-1.29,3.95,1.86,7.44,5.48,8.71a8,8,0,0,0,2.68.47h0a8.24,8.24,0,0,0,7.24-4.48,10.17,10.17,0,0,0,.92-7.41c.31.71.63,1.39,1,2,5,9.24,13.17,16.07,19.43,20.3a1.94,1.94,0,0,0-.53,1.33v2a2,2,0,0,0,2,1.94h.67v17.9l-3.22,5.52h-3.57a.59.59,0,0,0-.4.16L96.64,151a.55.55,0,0,0-.16.39v11.13H93.54a.56.56,0,0,0-.56.55v2.78a.56.56,0,0,0,.56.55h43a.56.56,0,0,0,.56-.55v-2.78a.56.56,0,0,0-.56-.55h-2.94V151.27a.56.56,0,0,0-.17-.4l-7.36-7.06a.54.54,0,0,0-.38-.15h-3.3l-3.22-5.56V120.24h.15a1.94,1.94,0,0,0,2-1.94v-2a1.94,1.94,0,0,0-.34-1.11c5.35-3.57,14.47-10.7,19.76-20.52.28-.52.55-1.08.81-1.66a10.18,10.18,0,0,0,1,7.07,8.24,8.24,0,0,0,7.24,4.48h0a8,8,0,0,0,2.68-.47c3.62-1.27,6.77-4.76,5.48-8.71a2.08,2.08,0,1,0-4,1.29c.55,1.67-1.77,3.11-2.91,3.51a4,4,0,0,1-4.87-2.08,5.9,5.9,0,0,1-.34-5c1.08-2.6,3.38-4.27,5.81-6,.73-.53,1.39-1,2-1.52.88-.69,1.69-1.35,2.47-2,8.38-7.06,13-13.82,14.56-21.28C171.44,58.65,173.22,46.68,164.68,43.38ZM80.8,83.67c-.64-.46-1.27-.92-1.87-1.4-.87-.69-1.65-1.32-2.37-1.93-5.31-4.47-8.94-8.75-11.11-13.09a21.57,21.57,0,0,1-.33-11.6c.61-2.27,2.27-6.08,6.47-6.18A5.94,5.94,0,0,1,78,55.23a8.71,8.71,0,0,1-.28,2.94,6.09,6.09,0,0,1-3.34,2.56,2.07,2.07,0,1,0,1.33,3.93,10.12,10.12,0,0,0,6.12-5.37,10.54,10.54,0,0,0,.93-3.95c0,2.09.13,4.3.25,6.58C83.7,74.4,85.22,84,87.58,90.56,86,87.45,83.25,85.45,80.8,83.67Zm66.47-27.53a10.31,10.31,0,0,0,.87,3.15,10.12,10.12,0,0,0,6.12,5.37,2.07,2.07,0,1,0,1.33-3.93,6.09,6.09,0,0,1-3.34-2.56,8.71,8.71,0,0,1-.28-2.94,6.35,6.35,0,0,1,.19-1.34,6.43,6.43,0,0,1,6.25-4.42c4.2.1,5.86,3.91,6.47,6.18a21.57,21.57,0,0,1-.33,11.6c-2.17,4.34-5.8,8.62-11.11,13.09-.72.61-1.49,1.24-2.37,1.93-.61.48-1.25,1-1.91,1.43-2.31,1.68-4.89,3.56-6.53,6.43C145.89,80.73,147,66.87,147.27,56.14Z"/><path class="cls-2" d="M190.08,88.83l1,1.63c.58,1,1.4,2.36,2.13,3.84s1.54,3,2.09,4.41a16.45,16.45,0,0,1,1.07,3.15,11,11,0,0,1-.2,2.89c-.11.56-.22,1.14-.38,1.72s-.33,1.16-.51,1.72c-.35,1.11-.7,2.11-1,2.83s-.5,1.18-.5,1.18l-.62-1.1c-.39-.67-.93-1.59-1.47-2.58-.27-.5-.54-1-.8-1.53s-.54-1-.77-1.52a9.76,9.76,0,0,1-.89-2.6,18.28,18.28,0,0,1,.06-3.15c.14-1.42.25-3.08.38-4.69s.23-3.16.31-4.3Z"/><path class="cls-2" d="M181.65,106s.27.5.7,1.27c.22.39.45.84.71,1.34l.84,1.59c.29.56.61,1.12.89,1.67s.56,1.08.83,1.56a10.54,10.54,0,0,0,1.32,2.05c.73.73,2.51,1.28,4.11,1.67s3,.59,3,.59-.08-.43-.23-1.1c-.07-.33-.16-.72-.25-1.15s-.25-.89-.39-1.36c-.29-1-.62-1.93-1-2.77a6.24,6.24,0,0,0-1.17-1.9,20,20,0,0,0-5.18-2.25C183.68,106.45,181.65,106,181.65,106Z"/><path class="cls-2" d="M177.88,112.33l1,1.56,1,1.67c.38.62.75,1.3,1.15,2l1.23,2.12,1.12,2a24,24,0,0,0,1.72,2.73,19.11,19.11,0,0,0,5,3.26c.48.25.95.48,1.38.69l1.14.55,1.07.49-.07-.37c0-.23-.12-.58-.23-1-.21-.84-.51-2-.87-3.15-.09-.3-.18-.6-.28-.9l-.34-.9c-.22-.6-.46-1.18-.7-1.72s-.49-1-.73-1.46a6.07,6.07,0,0,0-.77-1.06,14.64,14.64,0,0,0-2.53-1.85c-.59-.37-1.23-.74-1.9-1.12s-1.38-.74-2.07-1.09C180.41,113.39,177.88,112.33,177.88,112.33Z"/><path class="cls-2" d="M204.43,103.12l-.33,1.66c-.21,1-.56,2.35-.92,3.74-.19.69-.36,1.39-.58,2.06s-.43,1.32-.64,1.9a11.06,11.06,0,0,1-1.08,2.44c-.68.88-2.45,1.59-4,2.06a29,29,0,0,1-3,.71l.19-1.11c.06-.33.14-.73.22-1.17s.15-.91.24-1.39c.19-1,.41-2,.67-2.92A7,7,0,0,1,196,109c.53-.74,2.67-2.15,4.65-3.44S204.43,103.12,204.43,103.12Z"/><path class="cls-2" d="M209.52,110.14s-.29.84-.75,2.14L208,114.5c-.31.81-.69,1.69-1.06,2.57s-.76,1.78-1.14,2.63-.83,1.68-1.21,2.41a16.82,16.82,0,0,1-1.89,3.1c-1,1.16-3.35,2.24-5.38,3-.51.19-1,.36-1.46.5s-.87.27-1.23.37c-.7.21-1.15.31-1.15.31l.14-.35c.1-.22.24-.55.39-.95.31-.8.74-1.89,1.24-3.07l.38-.89.37-.9c.25-.61.52-1.2.78-1.76s.53-1.07.79-1.53a8.53,8.53,0,0,1,.74-1.13,19.15,19.15,0,0,1,2.47-2.11l3.81-2.83Z"/><path class="cls-2" d="M178.07,122.59l.23.44.26.52.32.68.83,1.74c.29.65.66,1.37,1,2.09s.66,1.48,1,2.21l.49,1.08c.16.35.29.69.43,1a20,20,0,0,0,1.42,2.88,10.6,10.6,0,0,0,1.94,1.87c.82.65,1.77,1.3,2.67,1.9,1.81,1.19,3.41,2.12,3.41,2.12s-.06-.54-.17-1.39-.26-2-.51-3.22-.58-2.51-.93-3.63a10.07,10.07,0,0,0-1.24-2.66,14.41,14.41,0,0,0-2.31-2.1c-1.1-.84-2.46-1.76-3.75-2.59s-2.53-1.57-3.47-2.1S178.07,122.59,178.07,122.59Z"/><path class="cls-2" d="M209.78,123.56l-.25.57-.29.65-.41.86c-.31.61-.67,1.34-1.06,2.13s-.8,1.63-1.28,2.48-1,1.7-1.45,2.51l-.71,1.19c-.23.38-.48.75-.72,1.1a19.34,19.34,0,0,1-2.22,2.9,8.17,8.17,0,0,1-2.48,1.39,24.32,24.32,0,0,1-3.21,1,37.35,37.35,0,0,1-3.92.76l.64-1.24c.4-.76,1-1.8,1.59-2.92s1.25-2.31,1.91-3.36a13.74,13.74,0,0,1,1.78-2.5,19.5,19.5,0,0,1,2.7-1.85c1.23-.75,2.66-1.61,4.06-2.44l3.72-2.24Z"/><path class="cls-2" d="M177.22,132.7s.25.67.65,1.7.84,2.44,1.36,4,1,3.08,1.42,4.45a19,19,0,0,0,1.06,3,10.71,10.71,0,0,0,1.72,2.08c.73.74,1.6,1.5,2.42,2.2,1.63,1.4,3.1,2.52,3.1,2.52s0-.55,0-1.4,0-2-.13-3.26c-.05-.62-.12-1.26-.19-1.89s-.16-1.23-.3-1.81a10.65,10.65,0,0,0-.93-2.78c-.58-1.05-3.12-3.4-5.5-5.3-1.17-.95-2.37-1.83-3.25-2.45Z"/><path class="cls-2" d="M208.64,137.05l-1.15,2c-.73,1.2-1.77,2.78-2.85,4.38s-2.36,3.2-3.4,4.49a19.28,19.28,0,0,1-2.58,2.65,8.16,8.16,0,0,1-2.61,1.1,25.16,25.16,0,0,1-3.32.61,39.44,39.44,0,0,1-4,.27l.8-1.15c.5-.7,1.22-1.66,1.92-2.71.37-.52.75-1,1.14-1.58s.81-1.05,1.16-1.54a12.36,12.36,0,0,1,2.07-2.28,64,64,0,0,1,7.2-3.55c1.5-.68,2.88-1.35,3.92-1.84Z"/><path class="cls-2" d="M175.29,142.5l.43,1.73c.3,1.07.57,2.49.9,4l.25,1.16.21,1.16c.13.76.27,1.52.41,2.21s.24,1.32.35,1.85a10.16,10.16,0,0,0,.32,1.22,10.55,10.55,0,0,0,1.44,2.28c.65.84,1.39,1.7,2.1,2.5,1.43,1.6,2.73,2.92,2.73,2.92s.09-.54.21-1.38c.06-.43.13-.92.2-1.47s.08-1.16.11-1.78a17.65,17.65,0,0,0-.57-6.58,12.65,12.65,0,0,0-1.79-2.57c-.87-1.06-2-2.25-3-3.33C177.38,144.26,175.29,142.5,175.29,142.5Z"/><path class="cls-2" d="M206,150.49l-1.41,1.86c-.82,1.12-2.08,2.59-3.37,4.06-.32.37-.65.73-1,1.1s-.69.71-1,1.06c-.68.7-1.34,1.35-1.95,1.93a21.73,21.73,0,0,1-1.7,1.48,10.22,10.22,0,0,1-1.21.84,8.59,8.59,0,0,1-2.74.77,25.27,25.27,0,0,1-3.37.16,37.77,37.77,0,0,1-4-.29l1-1,1-1.09c.37-.41.78-.87,1.21-1.33,1.78-1.85,3.71-4,5.05-4.82a20,20,0,0,1,3-1.19c1.37-.46,3-1,4.57-1.48C203.15,151.5,206,150.49,206,150.49Z"/><path class="cls-2" d="M172.24,151.78s.08.68.2,1.73c.06.53.15,1.16.21,1.85s.11,1.43.17,2.19c.15,1.55.17,3.14.25,4.54l.06,1,0,.86a8.79,8.79,0,0,0,.14,1.24,22.22,22.22,0,0,0,2.79,5.24c1.17,1.8,2.24,3.3,2.24,3.3l.43-1.33.2-.66.11-.37.1-.39c.13-.55.26-1.13.38-1.74s.25-1.23.35-1.85.14-1.25.18-1.83a9.77,9.77,0,0,0-.14-2.89,14.11,14.11,0,0,0-1.43-2.78c-.36-.58-.77-1.2-1.2-1.83s-.88-1.24-1.36-1.86C174.08,153.76,172.24,151.78,172.24,151.78Z"/><path class="cls-2" d="M201.63,163.71s-.65.68-1.67,1.69c-.51.5-1.09,1.09-1.75,1.71s-1.42,1.27-2.17,1.92a54.32,54.32,0,0,1-4.54,3.56l-1,.68c-.31.21-.63.39-.9.55a8.18,8.18,0,0,1-1.34.67c-1.49.54-4,.4-6.19,0a35.94,35.94,0,0,1-3.92-.9l1.11-.86.56-.43.32-.24.31-.26c.44-.35.91-.74,1.41-1.13s1-.81,1.56-1.21,1-.82,1.52-1.19a13.72,13.72,0,0,1,2.64-1.65,17.74,17.74,0,0,1,3.17-.78l2.29-.42c.81-.14,1.64-.29,2.43-.45C198.66,164.36,201.63,163.71,201.63,163.71Z"/><path class="cls-2" d="M168.05,160.31s0,.67,0,1.7c0,.53,0,1.15,0,1.83s-.1,1.39-.15,2.14c0,.38-.06.77-.08,1.15s-.06.78-.11,1.15l-.24,2.17c-.12,1.39-.29,2.48-.25,3.07a10.58,10.58,0,0,0,.67,2.58c.18.5.39,1,.6,1.53s.41,1,.62,1.51c.85,2,1.64,3.62,1.64,3.62s.27-.48.66-1.23a30.44,30.44,0,0,0,1.31-3c.22-.58.45-1.17.65-1.76s.33-1.21.46-1.78.23-1.11.29-1.59a5,5,0,0,0,0-1.27,14.1,14.1,0,0,0-1-3,42.52,42.52,0,0,0-2-4C169.59,162.5,168.05,160.31,168.05,160.31Z"/><path class="cls-2" d="M195.37,176.43s-.76.59-1.93,1.45c-.59.43-1.27.94-2,1.47s-1.61,1.06-2.47,1.6l-1.28.8c-.43.26-.86.52-1.31.75-.87.47-1.72.91-2.5,1.29a16.1,16.1,0,0,1-3.52,1.38,8.43,8.43,0,0,1-2.88-.11c-.53-.1-1.08-.23-1.63-.38s-1.1-.33-1.62-.52a33.73,33.73,0,0,1-3.71-1.56l1.24-.66c.79-.37,1.79-1,2.92-1.59.56-.31,1.15-.62,1.74-.93s1.14-.65,1.69-.94,1.08-.55,1.57-.76a12.37,12.37,0,0,1,1.3-.46,20,20,0,0,1,3.27-.29c1.45-.05,3.2-.07,4.82-.16C192.31,176.66,195.37,176.43,195.37,176.43Z"/><path class="cls-2" d="M162.73,167.86V168l-.06.33-.23,1.19c-.09.52-.2,1.12-.33,1.77,0,.34-.14.66-.22,1l-.26,1.06-.27,1.1c-.1.37-.17.76-.29,1.11l-.6,2.07c-.19.65-.34,1.28-.49,1.77a10,10,0,0,0-.28,1.2,10.55,10.55,0,0,0,.2,2.65c.18,1,.44,2.18.67,3.21.47,2.08.95,3.86.95,3.86s.35-.43.87-1.1c.13-.17.28-.34.42-.55l.44-.66c.31-.46.64-1,1-1.49s.66-1.05,1-1.61.54-1.13.77-1.67a8.59,8.59,0,0,0,.8-2.76,13.15,13.15,0,0,0-.47-3.07c-.15-.66-.34-1.37-.56-2.08s-.48-1.48-.74-2.19c-.52-1.43-1.07-2.75-1.5-3.71l-.51-1.13Z"/><path class="cls-2" d="M187,188.23l-.15.09-.44.23-1.58.83-2.26,1.13c-.41.21-.87.4-1.32.59l-1.4.59-1.42.58c-.48.18-.93.38-1.42.53-1,.32-1.88.6-2.72.85s-1.58.45-2.22.56a9,9,0,0,1-1.5.18,8.29,8.29,0,0,1-2.82-.62,19.57,19.57,0,0,1-3-1.45,33.73,33.73,0,0,1-3.38-2.22l1.35-.41.67-.21.76-.26,1.72-.58c.6-.21,1.26-.4,1.88-.62s1.23-.43,1.83-.62a16.78,16.78,0,0,1,3-.71,19.27,19.27,0,0,1,3.27.28l2.34.32c.82.12,1.64.21,2.46.31,1.63.19,3.21.35,4.39.46l1.41.13Z"/><path class="cls-2" d="M156.35,174.23l0,.11c0,.07-.06.19-.11.32l-.43,1.12-.62,1.66-.19.48c-.06.16-.14.31-.21.47l-.44,1c-.31.69-.63,1.39-.93,2.08s-.68,1.32-1,1.91-.58,1.18-.8,1.66a10.14,10.14,0,0,0-.49,1.13,21.57,21.57,0,0,0-.21,5.93c.05,1.08.1,2.06.15,2.78l.09,1.18s.42-.34,1.06-.9,1.44-1.44,2.27-2.34l.63-.69c.21-.23.39-.5.59-.74.38-.51.74-1,1.06-1.49a13.62,13.62,0,0,0,.83-1.38,5.32,5.32,0,0,0,.46-1.19,13.86,13.86,0,0,0,.1-3.1c0-.68-.1-1.4-.18-2.15s-.22-1.54-.35-2.29c-.26-1.49-.57-2.88-.82-3.89S156.35,174.23,156.35,174.23Z"/><path class="cls-2" d="M176.67,198.59l-.17.06-.46.16-1.72.53c-.71.22-1.55.46-2.44.72l-.69.19-.72.17-1.5.32c-1,.21-2,.41-3,.59s-2,.25-2.83.33-1.65.14-2.29.16a8.46,8.46,0,0,1-1.51-.09c-1.58-.29-3.71-1.71-5.37-3.1-.83-.7-1.57-1.41-2.09-1.93s-.83-.86-.83-.86l1.4-.15c.84-.14,2-.32,3.29-.48l1-.12c.33,0,.65-.11,1-.16l1.92-.27c.62-.07,1.21-.12,1.75-.14a9,9,0,0,1,1.37,0,18.88,18.88,0,0,1,3.18.87l2.25.74,2.36.73c1.57.48,3.11.92,4.26,1.24S176.67,198.59,176.67,198.59Z"/><path class="cls-2" d="M149,179.3l-.22.4c-.13.27-.35.6-.62,1l-.93,1.51-.56.89c-.19.3-.41.59-.62.89-.87,1.22-1.77,2.5-2.54,3.57a22.25,22.25,0,0,0-1.62,2.51l-.05.12-.07.13a1.71,1.71,0,0,0-.14.27c-.09.19-.18.39-.26.61-.16.44-.31.93-.44,1.44a31.68,31.68,0,0,0-.6,3.23c-.29,2.12-.38,3.93-.38,3.93s1.84-1.14,3.88-2.59a35.39,35.39,0,0,0,2.75-2.46c.2-.2.39-.4.56-.59s.34-.42.48-.61a6.63,6.63,0,0,0,.67-1.1,13.47,13.47,0,0,0,.66-3c0-.33.09-.68.13-1s.05-.75.08-1.13c0-.77.07-1.55.08-2.31,0-1.51,0-2.93-.09-4,0-.52-.08-1-.1-1.26Z"/><path class="cls-2" d="M164.54,206.94l-.65.11c-.42.08-1,.13-1.78.21s-1.6.17-2.53.25l-1.44.12-1.51,0c-2.07,0-4.07,0-5.95-.11a19.93,19.93,0,0,1-3.88-.55l-.14,0-.13-.07-.26-.15c-.18-.12-.36-.24-.55-.39a13.64,13.64,0,0,1-1.14-1,32,32,0,0,1-2.23-2.41c-1.38-1.64-2.42-3.12-2.42-3.12s2.17,0,4.67.12c1.26,0,2.64,0,3.91.08l.92.07c.3,0,.57,0,.83.06a7,7,0,0,1,1.34.24,19,19,0,0,1,3,1.44l1,.56,1,.55,2.19,1.16c1.47.76,2.9,1.48,4,2l1.27.6Z"/><path class="cls-2" d="M141.42,198.61c.35-.12,2.41-.61,5.49-1.77l1.23-.43,1.31-.56,1.4-.6.74-.31.38-.16.38-.19,3.17-1.6c1.09-.6,2.21-1.28,3.39-2a9,9,0,0,0,.87-.55l.86-.58,1.79-1.2c.59-.42,1.17-.89,1.77-1.34s1.2-.91,1.8-1.4a65.94,65.94,0,0,0,6.95-6.7,70.36,70.36,0,0,0,6.31-8.11l1.4-2.22c.23-.38.48-.74.7-1.13l.64-1.15c.43-.78.87-1.54,1.29-2.33l1.17-2.38c.2-.4.4-.79.59-1.19l.52-1.22,1.05-2.43.93-2.47.47-1.23c.14-.41.27-.83.41-1.25.26-.82.53-1.65.8-2.47s.46-1.66.7-2.48c.11-.41.22-.82.34-1.22s.22-.82.31-1.23c.19-.82.37-1.64.56-2.44a104.78,104.78,0,0,0,2.33-17.91c.05-1.33.07-2.59.1-3.8l0-.89c0-.29,0-.58,0-.86l0-1.66,0-1.56c0-.5,0-1-.06-1.45,0-.92-.09-1.78-.13-2.54s-.1-1.46-.15-2l-.13-1.51-.11-1.26.7-.08.12,1.26c0,.41.08.92.14,1.52s.14,1.28.17,2,.09,1.62.14,2.55c0,.47.07.95.08,1.45l0,1.56,0,1.67,0,.87c0,.29,0,.59,0,.89,0,1.21,0,2.48-.07,3.81a107.42,107.42,0,0,1-2.2,18c-.18.81-.36,1.64-.55,2.46l-.13.62-.17.62-.33,1.24c-.23.83-.43,1.67-.68,2.51s-.53,1.66-.79,2.5l-.4,1.26-.46,1.24c-.3.83-.61,1.67-.92,2.51s-.69,1.64-1,2.46l-.52,1.24c-.17.42-.38.81-.57,1.22l-1.17,2.42c-.4.8-.86,1.58-1.28,2.37-.83,1.59-1.82,3.08-2.74,4.59-.23.38-.49.74-.74,1.1l-.76,1.09c-.52.71-1,1.46-1.54,2.13s-1.08,1.37-1.62,2l-.4.51-.42.48-.85,1a65.35,65.35,0,0,1-14.22,12.17l-3.44,2-3.25,1.66c-.51.28-1,.48-1.53.7l-1.44.62-1.34.59c-.43.18-.86.31-1.27.47l-2.2.79-.91.33-.8.23-1.78.52Z"/><polygon class="cls-2" points="141.85 200.09 139.93 199.84 141.42 198.61 142.29 198.97 141.85 200.09"/><path class="cls-2" d="M38.43,88.83l-1,1.63c-.58,1-1.4,2.36-2.13,3.84s-1.54,3-2.09,4.41a16.45,16.45,0,0,0-1.07,3.15,10.57,10.57,0,0,0,.2,2.89c.11.56.22,1.14.37,1.72s.34,1.16.51,1.72c.36,1.11.71,2.11,1,2.83s.5,1.18.5,1.18l.62-1.1c.39-.67.93-1.59,1.47-2.58.27-.5.54-1,.8-1.53s.54-1,.77-1.52a9.76,9.76,0,0,0,.89-2.6,17.54,17.54,0,0,0-.07-3.15c-.13-1.42-.24-3.08-.38-4.69s-.22-3.16-.3-4.3Z"/><path class="cls-2" d="M46.86,106s-.27.5-.7,1.27c-.22.39-.45.84-.71,1.34s-.55,1-.84,1.59-.61,1.12-.89,1.67-.56,1.08-.83,1.56a10.54,10.54,0,0,1-1.32,2.05c-.73.73-2.51,1.28-4.11,1.67s-3,.59-3,.59.08-.43.23-1.1c.07-.33.16-.72.25-1.15s.25-.89.39-1.36c.29-1,.62-1.93,1-2.77a6.24,6.24,0,0,1,1.17-1.9,20,20,0,0,1,5.18-2.25C44.83,106.45,46.86,106,46.86,106Z"/><path class="cls-2" d="M50.63,112.33l-1,1.56-1,1.67c-.38.62-.75,1.3-1.15,2s-.83,1.42-1.23,2.12l-1.12,2a24,24,0,0,1-1.72,2.73,19.28,19.28,0,0,1-5,3.26l-1.38.69-1.14.55-1.07.49.07-.37c.05-.23.11-.58.23-1,.21-.84.51-2,.87-3.15.09-.3.18-.6.28-.9l.34-.9c.22-.6.46-1.18.7-1.72s.49-1,.73-1.46a6.07,6.07,0,0,1,.77-1.06A14.64,14.64,0,0,1,41.36,117c.59-.37,1.23-.74,1.9-1.12s1.38-.74,2.07-1.09C48.1,113.39,50.63,112.33,50.63,112.33Z"/><path class="cls-2" d="M24.08,103.12l.33,1.66c.2,1,.56,2.35.92,3.74.18.69.36,1.39.57,2.06s.44,1.32.64,1.9a11.45,11.45,0,0,0,1.09,2.44c.68.88,2.45,1.59,4,2.06a29,29,0,0,0,3,.71l-.19-1.11c-.06-.33-.14-.73-.22-1.17s-.15-.91-.24-1.39c-.19-1-.41-2-.67-2.92a7.25,7.25,0,0,0-.83-2.11c-.53-.74-2.67-2.15-4.66-3.44S24.08,103.12,24.08,103.12Z"/><path class="cls-2" d="M19,110.14s.29.84.75,2.14l.81,2.22c.31.81.69,1.69,1.06,2.57s.76,1.78,1.14,2.63.82,1.68,1.21,2.41a16.82,16.82,0,0,0,1.89,3.1c1,1.16,3.35,2.24,5.38,3,.51.19,1,.36,1.45.5s.88.27,1.23.37c.71.21,1.16.31,1.16.31l-.15-.35c-.09-.22-.23-.55-.38-.95-.31-.8-.74-1.89-1.24-3.07l-.38-.89-.37-.9c-.25-.61-.52-1.2-.78-1.76s-.53-1.07-.8-1.53a7.66,7.66,0,0,0-.73-1.13,19.15,19.15,0,0,0-2.47-2.11L24,113.86Z"/><path class="cls-2" d="M50.44,122.59l-.23.44-.26.52-.32.68L48.8,126c-.3.65-.66,1.37-1,2.09s-.66,1.48-1,2.21l-.49,1.08c-.16.35-.29.69-.44,1a19.22,19.22,0,0,1-1.41,2.88,10.6,10.6,0,0,1-1.94,1.87c-.82.65-1.77,1.3-2.68,1.9-1.8,1.19-3.4,2.12-3.4,2.12s.06-.54.17-1.39.26-2,.51-3.22.58-2.51.93-3.63a10.07,10.07,0,0,1,1.24-2.66,14.41,14.41,0,0,1,2.31-2.1c1.1-.84,2.45-1.76,3.75-2.59s2.53-1.57,3.47-2.1S50.44,122.59,50.44,122.59Z"/><path class="cls-2" d="M18.73,123.56l.25.57.29.65.41.86c.31.61.66,1.34,1.05,2.13s.81,1.63,1.29,2.48,1,1.7,1.44,2.51c.25.4.48.8.72,1.19s.48.75.71,1.1a19.91,19.91,0,0,0,2.23,2.9,8.17,8.17,0,0,0,2.48,1.39,24.66,24.66,0,0,0,3.2,1,37.78,37.78,0,0,0,3.93.76l-.65-1.24c-.39-.76-1-1.8-1.58-2.92s-1.26-2.31-1.91-3.36a13.71,13.71,0,0,0-1.79-2.5,19.25,19.25,0,0,0-2.69-1.85c-1.23-.75-2.67-1.61-4.06-2.44l-3.72-2.24Z"/><path class="cls-2" d="M51.29,132.7l-.65,1.7c-.38,1-.84,2.44-1.36,4s-1,3.08-1.42,4.45a20.11,20.11,0,0,1-1.06,3,10.71,10.71,0,0,1-1.72,2.08c-.74.74-1.6,1.5-2.42,2.2-1.64,1.4-3.1,2.52-3.1,2.52s0-.55,0-1.4,0-2,.13-3.26c0-.62.11-1.26.19-1.89a17.08,17.08,0,0,1,.3-1.81,10.65,10.65,0,0,1,.93-2.78c.58-1.05,3.12-3.4,5.5-5.3,1.17-.95,2.37-1.83,3.25-2.45S51.29,132.7,51.29,132.7Z"/><path class="cls-2" d="M19.87,137.05,21,139c.73,1.2,1.77,2.78,2.85,4.38s2.35,3.2,3.4,4.49a19.28,19.28,0,0,0,2.58,2.65,8.16,8.16,0,0,0,2.61,1.1,24.86,24.86,0,0,0,3.32.61,39.44,39.44,0,0,0,4,.27L39,151.38c-.49-.7-1.21-1.66-1.92-2.71-.36-.52-.74-1-1.14-1.58s-.8-1.05-1.16-1.54a12.36,12.36,0,0,0-2.06-2.28,64,64,0,0,0-7.2-3.55c-1.5-.68-2.88-1.35-3.92-1.84Z"/><path class="cls-2" d="M53.22,142.5l-.44,1.73c-.29,1.07-.56,2.49-.89,4l-.25,1.16-.21,1.16c-.13.76-.27,1.52-.41,2.21s-.24,1.32-.35,1.85a8.35,8.35,0,0,1-.33,1.22,10.08,10.08,0,0,1-1.43,2.28c-.65.84-1.39,1.7-2.11,2.5-1.42,1.6-2.72,2.92-2.72,2.92s-.09-.54-.21-1.38c-.06-.43-.14-.92-.2-1.47s-.08-1.16-.11-1.78a17.68,17.68,0,0,1,.56-6.58,13.24,13.24,0,0,1,1.8-2.57c.87-1.06,2-2.25,3-3.33C51.13,144.26,53.22,142.5,53.22,142.5Z"/><path class="cls-2" d="M22.52,150.49l1.41,1.86c.82,1.12,2.08,2.59,3.37,4.06.32.37.65.73,1,1.1s.69.71,1,1.06c.68.7,1.34,1.35,2,1.93A21.73,21.73,0,0,0,33,162a10.22,10.22,0,0,0,1.21.84,8.59,8.59,0,0,0,2.74.77,25.27,25.27,0,0,0,3.37.16,37.77,37.77,0,0,0,4-.29l-1-1-1-1.09c-.37-.41-.78-.87-1.21-1.33-1.79-1.85-3.71-4-5-4.82A20.4,20.4,0,0,0,33,154c-1.37-.46-3-1-4.57-1.48C25.36,151.5,22.52,150.49,22.52,150.49Z"/><path class="cls-2" d="M56.27,151.78s-.08.68-.2,1.73c-.06.53-.15,1.16-.22,1.85s-.1,1.43-.16,2.19c-.15,1.55-.17,3.14-.25,4.54l-.06,1,0,.86a8.79,8.79,0,0,1-.14,1.24,22.6,22.6,0,0,1-2.79,5.24c-1.17,1.8-2.24,3.3-2.24,3.3s-.18-.52-.43-1.33l-.2-.66-.11-.37-.1-.39c-.13-.55-.26-1.13-.38-1.74s-.25-1.23-.35-1.85-.14-1.25-.18-1.83a9.77,9.77,0,0,1,.14-2.89A13.57,13.57,0,0,1,50,159.89c.36-.58.77-1.2,1.2-1.83s.88-1.24,1.36-1.86C54.43,153.76,56.27,151.78,56.27,151.78Z"/><path class="cls-2" d="M26.88,163.71s.65.68,1.66,1.69c.51.5,1.1,1.09,1.76,1.71s1.42,1.27,2.17,1.92A52.73,52.73,0,0,0,37,172.59l1,.68c.31.21.63.39.9.55a8.59,8.59,0,0,0,1.33.67c1.5.54,4,.4,6.2,0a35.94,35.94,0,0,0,3.92-.9l-1.11-.86-.56-.43-.32-.24-.32-.26c-.43-.35-.9-.74-1.41-1.13s-1-.81-1.56-1.21-1-.82-1.51-1.19a13.72,13.72,0,0,0-2.64-1.65,17.74,17.74,0,0,0-3.17-.78l-2.29-.42c-.81-.14-1.64-.29-2.43-.45C29.85,164.36,26.88,163.71,26.88,163.71Z"/><path class="cls-2" d="M60.46,160.31s0,.67,0,1.7c0,.53,0,1.15,0,1.83s.1,1.39.15,2.14c0,.38.06.77.08,1.15s.06.78.11,1.15l.24,2.17a28.38,28.38,0,0,1,.24,3.07,10.07,10.07,0,0,1-.66,2.58c-.18.5-.39,1-.6,1.53s-.42,1-.63,1.51c-.84,2-1.63,3.62-1.63,3.62s-.27-.48-.66-1.23a30.44,30.44,0,0,1-1.31-3c-.22-.58-.45-1.17-.65-1.76s-.33-1.21-.46-1.78-.23-1.11-.29-1.59a5,5,0,0,1,0-1.27,14.1,14.1,0,0,1,1-3,40.23,40.23,0,0,1,2-4C58.92,162.5,60.46,160.31,60.46,160.31Z"/><path class="cls-2" d="M33.14,176.43s.76.59,1.93,1.45c.58.43,1.27.94,2,1.47s1.61,1.06,2.46,1.6l1.29.8c.43.26.86.52,1.3.75.88.47,1.73.91,2.51,1.29a15.91,15.91,0,0,0,3.52,1.38,8.43,8.43,0,0,0,2.88-.11c.53-.1,1.08-.23,1.63-.38s1.1-.33,1.62-.52A34.79,34.79,0,0,0,58,182.6l-1.25-.66c-.79-.37-1.78-1-2.91-1.59-.56-.31-1.15-.62-1.74-.93s-1.14-.65-1.69-.94-1.08-.55-1.57-.76a13.23,13.23,0,0,0-1.3-.46,20,20,0,0,0-3.27-.29c-1.45-.05-3.2-.07-4.82-.16C36.2,176.66,33.14,176.43,33.14,176.43Z"/><path class="cls-2" d="M65.78,167.86V168l.06.33.22,1.19c.1.52.21,1.12.33,1.77.06.34.15.66.23,1l.26,1.06.27,1.1c.1.37.17.76.29,1.11l.6,2.07c.19.65.34,1.28.49,1.77a10,10,0,0,1,.28,1.2,11,11,0,0,1-.2,2.65c-.18,1-.44,2.18-.67,3.21-.47,2.08-1,3.86-1,3.86s-.35-.43-.87-1.1c-.13-.17-.28-.34-.42-.55l-.44-.66c-.31-.46-.64-1-1-1.49s-.66-1.05-1-1.61-.54-1.13-.77-1.67a8.59,8.59,0,0,1-.8-2.76,13.56,13.56,0,0,1,.46-3.07c.16-.66.35-1.37.57-2.08s.48-1.48.74-2.19c.52-1.43,1.07-2.75,1.49-3.71l.52-1.13Z"/><path class="cls-2" d="M41.47,188.23l.15.09.44.23,1.57.83,2.27,1.13c.4.21.86.4,1.32.59l1.4.59,1.42.58c.48.18.93.38,1.42.53,1,.32,1.88.6,2.71.85s1.58.45,2.23.56a9,9,0,0,0,1.5.18,8.34,8.34,0,0,0,2.82-.62,20,20,0,0,0,3-1.45,33.73,33.73,0,0,0,3.38-2.22l-1.35-.41-.68-.21-.75-.26-1.72-.58c-.61-.21-1.26-.4-1.88-.62s-1.23-.43-1.83-.62a17,17,0,0,0-3.05-.71,19.27,19.27,0,0,0-3.27.28l-2.34.32c-.82.12-1.64.21-2.46.31-1.63.19-3.21.35-4.39.46l-1.42.13Z"/><path class="cls-2" d="M72.16,174.23l0,.11c0,.07.06.19.11.32s.25.65.42,1.12l.63,1.66.19.48c.06.16.14.31.21.47l.44,1c.31.69.63,1.39.93,2.08l1,1.91c.3.61.58,1.18.8,1.66a10.14,10.14,0,0,1,.49,1.13,22,22,0,0,1,.21,5.93c0,1.08-.11,2.06-.16,2.78l-.08,1.18s-.42-.34-1.06-.9-1.44-1.44-2.27-2.34l-.63-.69c-.21-.23-.4-.5-.59-.74-.38-.51-.74-1-1.07-1.49s-.6-.95-.83-1.38a5.77,5.77,0,0,1-.45-1.19,13.86,13.86,0,0,1-.1-3.1c0-.68.1-1.4.18-2.15s.22-1.54.35-2.29c.26-1.49.57-2.88.82-3.89S72.16,174.23,72.16,174.23Z"/><path class="cls-2" d="M51.84,198.59l.16.06c.11,0,.26.1.47.16l1.72.53c.71.22,1.54.46,2.44.72l.69.19.72.17,1.49.32c1,.21,2,.41,3,.59s2,.25,2.83.33,1.65.14,2.29.16a8.26,8.26,0,0,0,1.5-.09c1.59-.29,3.72-1.71,5.38-3.1.83-.7,1.57-1.41,2.09-1.93s.83-.86.83-.86l-1.4-.15c-.85-.14-2-.32-3.29-.48l-1-.12c-.33,0-.65-.11-1-.16l-1.92-.27c-.62-.07-1.21-.12-1.75-.14a9,9,0,0,0-1.37,0,18.88,18.88,0,0,0-3.18.87l-2.25.74-2.36.73c-1.58.48-3.11.92-4.26,1.24S51.84,198.59,51.84,198.59Z"/><path class="cls-2" d="M79.53,179.3l.21.4c.14.27.36.6.63,1l.93,1.51.55.89c.2.3.42.59.63.89L85,187.6a21.27,21.27,0,0,1,1.63,2.51l0,.12.07.13c0,.08.09.17.14.27s.18.39.26.61a12.9,12.9,0,0,1,.43,1.44,31.71,31.71,0,0,1,.61,3.23c.29,2.12.38,3.93.38,3.93s-1.84-1.14-3.89-2.59c-1-.79-1.94-1.65-2.74-2.46-.2-.2-.39-.4-.56-.59s-.34-.42-.48-.61a6,6,0,0,1-.67-1.1,13.47,13.47,0,0,1-.66-3c0-.33-.09-.68-.13-1s0-.75-.08-1.13c0-.77-.07-1.55-.08-2.31,0-1.51,0-2.93.09-4,0-.52.08-1,.1-1.26Z"/><path class="cls-2" d="M64,206.94l.66.11c.42.08,1,.13,1.77.21s1.61.17,2.54.25l1.44.12,1.51,0c2.07,0,4.07,0,6-.11a20.07,20.07,0,0,0,3.88-.55l.14,0,.13-.07.26-.15c.18-.12.36-.24.55-.39a12.14,12.14,0,0,0,1.13-1A30.13,30.13,0,0,0,86.16,203c1.38-1.64,2.42-3.12,2.42-3.12s-2.17,0-4.67.12c-1.26,0-2.64,0-3.91.08l-.92.07c-.3,0-.57,0-.83.06a7.32,7.32,0,0,0-1.35.24,19,19,0,0,0-3,1.44l-1,.56-1,.55-2.19,1.16c-1.47.76-2.9,1.48-4,2l-1.27.6Z"/><path class="cls-2" d="M87.09,198.61c-.35-.12-2.41-.61-5.5-1.77l-1.22-.43-1.31-.56-1.41-.6-.73-.31-.38-.16-.38-.19L73,193c-1.09-.6-2.2-1.28-3.38-2a9,9,0,0,1-.87-.55l-.87-.58-1.78-1.2c-.6-.42-1.17-.89-1.77-1.34s-1.21-.91-1.8-1.4a65.94,65.94,0,0,1-6.95-6.7,70.36,70.36,0,0,1-6.31-8.11c-.47-.74-.94-1.48-1.4-2.22-.23-.38-.48-.74-.7-1.13l-.64-1.15c-.43-.78-.88-1.54-1.29-2.33L44,161.94c-.19-.4-.39-.79-.58-1.19l-.52-1.22c-.36-.81-.71-1.63-1.06-2.43s-.62-1.65-.92-2.47l-.47-1.23c-.14-.41-.27-.83-.41-1.25-.27-.82-.53-1.65-.8-2.47s-.46-1.66-.7-2.48c-.11-.41-.22-.82-.34-1.22s-.22-.82-.31-1.23c-.19-.82-.37-1.64-.56-2.44A104.78,104.78,0,0,1,35,124.4c0-1.33-.07-2.59-.1-3.8l0-.89c0-.29,0-.58,0-.86l0-1.66,0-1.56c0-.5,0-1,.06-1.45,0-.92.09-1.78.13-2.54s.1-1.46.15-2l.13-1.51.11-1.26-.7-.08L34.73,108c0,.41-.08.92-.14,1.52s-.14,1.28-.17,2-.09,1.62-.14,2.55c0,.47-.07.95-.08,1.45l0,1.56,0,1.67,0,.87c0,.29,0,.59,0,.89,0,1.21,0,2.48.07,3.81a106.39,106.39,0,0,0,2.2,18c.18.81.36,1.64.55,2.46l.13.62.17.62.33,1.24c.23.83.43,1.67.68,2.51s.53,1.66.79,2.5l.4,1.26.46,1.24c.3.83.61,1.67.92,2.51s.69,1.64,1,2.46l.53,1.24c.17.42.38.81.57,1.22l1.17,2.42c.4.8.86,1.58,1.28,2.37.83,1.59,1.82,3.08,2.74,4.59.23.38.49.74.74,1.1l.76,1.09c.51.71,1,1.46,1.54,2.13l1.61,2,.4.51.43.48c.28.33.57.64.85,1A65.35,65.35,0,0,0,68.7,192.14l3.44,2,3.25,1.66c.51.28,1,.48,1.52.7l1.45.62,1.34.59c.43.18.86.31,1.26.47l2.2.79.92.33.79.23,1.79.52Z"/><polygon class="cls-2" points="86.66 200.09 88.58 199.84 87.09 198.61 86.22 198.97 86.66 200.09"/></g></svg>