<svg xmlns="http://www.w3.org/2000/svg" xmlns:xlink="http://www.w3.org/1999/xlink" viewBox="0 0 230.4 230.4"><defs><style>.cls-1{fill:url(#Super_Soft_Black_Vignette);}.cls-2{fill:url(#Super_Soft_Black_Vignette-2);}</style><radialGradient id="Super_Soft_Black_Vignette" cx="114.2" cy="116.2" r="93.7" gradientUnits="userSpaceOnUse"><stop offset="0.57" stop-color="#181415"/><stop offset="0.8" stop-color="#181415"/><stop offset="1" stop-color="#181415"/></radialGradient><radialGradient id="Super_Soft_Black_Vignette-2" cx="114.2" cy="114.57" r="35.91" gradientTransform="translate(0 8.32) scale(1 0.91)" xlink:href="#Super_Soft_Black_Vignette"/></defs><g id="Layer_1" data-name="Layer 1"><path class="cls-1" d="M111.81,202.38a4.14,4.14,0,0,0,4.78,0c4-2.79,97.61-69,97.61-123.5,0-23.54-13.88-41.73-36.21-47.49-20.65-5.31-48.14,1.28-63.84,23.47A60.77,60.77,0,0,0,49.83,31.12C27.85,37,14.2,55.29,14.2,78.88,14.2,133.36,107.83,199.59,111.81,202.38ZM52,39.15a48.58,48.58,0,0,1,12.45-1.58,52.77,52.77,0,0,1,46.17,27.12,4.16,4.16,0,0,0,7.25-.07c12.73-23.07,38.85-30.12,58.07-25.17,18.76,4.83,30,19.57,30,39.43,0,45.62-77,104.23-91.68,115-14.66-10.74-91.68-69.35-91.68-115C22.52,58.93,33.53,44.08,52,39.15Z"/><path class="cls-2" d="M103.4,150.13H125V112.57h18.54V92.33H125V74.77H103.4V92.33H84.86v20.24H103.4Zm-13-42.6V97.37H109V79.82h10.5V97.37H138v10.16H119.45v37.56H109V107.53Z"/></g></svg>