<svg id="_10" data-name="10" xmlns="http://www.w3.org/2000/svg" viewBox="0 0 230 230"><defs><style>.cls-1{fill:#221f20;fill-rule:evenodd;}</style></defs><path class="cls-1" d="M51.24,165.43l17-14.34,17-14.34h-68l17,14.34Zm131.41,0,17-14.34,17-14.34h-68l17,14.34ZM114.53,39.32h4.83a2.6,2.6,0,0,1,2.65,2.5v16H111.88v-16a2.59,2.59,0,0,1,2.65-2.5ZM122,73V176.81H111.88V73ZM44.22,67.85V63a2.48,2.48,0,0,1,2.5-2.5H117c6.39,0,6.55,9.83,0,10h70.15a2.6,2.6,0,0,0,2.49-2.65V63a2.47,2.47,0,0,0-2.49-2.5H117c-6.54,0-6.7,9.83-.15,10H46.72a2.61,2.61,0,0,1-2.5-2.65ZM78.83,185.38v3.75A1.89,1.89,0,0,0,80.7,191h72.49a1.8,1.8,0,0,0,1.87-1.87v-3.75a1.89,1.89,0,0,0-1.87-1.86H138.37V180.7a1.89,1.89,0,0,0-1.86-1.86H97.38a1.9,1.9,0,0,0-1.87,1.86v2.82H80.7a2,2,0,0,0-1.87,1.86Zm-27.44-115,17,33.19,17.14,33.21.16.31H16.94l.16-.31,17-33.21,17-33.19.16-.31ZM68.07,103.7,51.24,71,34.41,103.7,17.57,136.59H84.91ZM182.8,70.35l17,33.19,17,33.21.15.31H148.2l.16-.31,17.14-33.21,17-33.19.16-.31Zm16.68,33.35L182.65,71,165.81,103.7,149,136.59h67.34Z"/></svg>