<svg xmlns="http://www.w3.org/2000/svg" xmlns:xlink="http://www.w3.org/1999/xlink" viewBox="0 0 230.4 230.4"><defs><style>.cls-1{fill:url(#Super_Soft_Black_Vignette);}.cls-2{fill:url(#Super_Soft_Black_Vignette-2);}.cls-3{fill:url(#Super_Soft_Black_Vignette-3);}</style><radialGradient id="Super_Soft_Black_Vignette" cx="70.88" cy="83.57" r="40.52" gradientUnits="userSpaceOnUse"><stop offset="0.57" stop-color="#181415"/><stop offset="0.8" stop-color="#181415"/><stop offset="1" stop-color="#181415"/></radialGradient><radialGradient id="Super_Soft_Black_Vignette-2" cx="168.19" cy="83.57" r="40.52" xlink:href="#Super_Soft_Black_Vignette"/><radialGradient id="Super_Soft_Black_Vignette-3" cx="119.54" cy="152.28" r="74.65" xlink:href="#Super_Soft_Black_Vignette"/></defs><g id="Layer_1" data-name="Layer 1"><path class="cls-1" d="M70.88,124.09h0a40.51,40.51,0,1,0-40.53-40.5A40.24,40.24,0,0,0,70.89,124.09ZM49.81,62.52a29.78,29.78,0,1,1,21.08,50.85h0A29.78,29.78,0,0,1,49.81,62.52Z"/><path class="cls-2" d="M168.2,124.09h0a40.5,40.5,0,1,0-40.54-40.5A40.2,40.2,0,0,0,168.21,124.09ZM147.13,62.52a29.78,29.78,0,1,1,21.08,50.85h0a29.78,29.78,0,0,1-21.07-50.85Z"/><path class="cls-3" d="M219.53,180.93c0-1.45.91-35.67-20.61-55.38a5.37,5.37,0,0,0-6.89-.3c-.19.15-15.27,11.46-32.56,7.05-1.24-9.6-9.17-12.44-11.74-13.1a21,21,0,0,0-23.35,10.12,2.47,2.47,0,0,1-2.1,1.28,2.59,2.59,0,0,1-2.2-1.24,21.3,21.3,0,0,0-18.56-10.93,19.66,19.66,0,0,0-5,.64A15.47,15.47,0,0,0,85.33,130.3c-9,3.59-23.2,6-36.77-5a5.35,5.35,0,0,0-6.9.11c-.88.76-21.6,19.18-22.12,55.28a5.38,5.38,0,0,0,5.36,5.44h0l91.95,0a5.36,5.36,0,0,0,2.67-.73,5.43,5.43,0,0,0,2.7.75h0l91.95,0A5.36,5.36,0,0,0,219.53,180.93Zm-189-5.52c1.64-20.46,10.53-33.35,15.26-38.85,14,9.32,28.8,8.65,40.22,5,3.85,11.28,16.12,23.54,25.12,31.41.09.87.16,1.71.21,2.46ZM91.14,134.9c0-6.46,3.81-8.84,7-9.69a13.13,13.13,0,0,1,3.37-.43,15,15,0,0,1,13.06,7.75,8.91,8.91,0,0,0,7.72,4.41,8.78,8.78,0,0,0,7.63-4.55,14.62,14.62,0,0,1,16.21-7c3.27.84,7.16,3.18,7.16,9.55,0,10.33-15.3,26.74-31.07,39C109.85,164.18,91.14,146.46,91.14,134.9Zm39.32,40.51c8.7-7.27,22.62-20.25,27.46-32.45,14.45,3.29,28.17-1.39,36.68-6.52,10.91,12.35,13.46,30.22,14,38.95Z"/></g></svg>