<svg id="Layer_1" data-name="Layer 1" xmlns="http://www.w3.org/2000/svg" viewBox="0 0 1200 120"><defs><style>.cls-1{fill:#c1272d;}</style></defs><path class="cls-1" d="M536.15,84c5.4-3.19,11.75-5.31,17.47-8.15a68.09,68.09,0,0,0,11.23-7.17,64,64,0,0,0,8.75-8.18c1.78-2,3.5-4,5.44-5.85.48-.47,5.18-4.66,5.84-4,.49.5-1.33,2.17-1.69,2.58-1,1.16-2,2.32-2.92,3.48-1.88,2.28-3.62,4.61-5.62,6.83a60.77,60.77,0,0,1-11.92,10.06c-2.14,1.39-4.31,2.79-6.65,4-3.08,1.59-6.39,2.94-9.64,4.34-5.71,2.48-14.3,5.88-14.87,11.27-.31,3,1.81,6.06,6.19,6.58,4.81.57,9-2,9.82-5.37a4.45,4.45,0,0,0-2-4.51,6.71,6.71,0,0,0-5.57-.67c-2,.71-2.67,2.54-2,3.95a3,3,0,0,0,2,1.46l.25,0a1.55,1.55,0,0,1,.81-1.41,3.16,3.16,0,0,1,3.49.11,1.46,1.46,0,0,1-.23,2.51,3.2,3.2,0,0,1-3.49-.11,1.44,1.44,0,0,1-.54-.9c-.44,0-.84-.06-.91-.08A3.22,3.22,0,0,1,537,92c-.13-2.62,3.11-4.3,6.55-3.92,3.66.4,5.87,3,6.1,5.47s-1.45,5.08-4.21,6.64c-5.54,3.13-13.69,1.62-16.13-3C526.58,92,530.63,87.29,536.15,84Z"/><path class="cls-1" d="M487.11,116.3a4.1,4.1,0,0,1-4.19,1.52c-1.78-.37-2.69-1.76-2.17-3a4.23,4.23,0,0,1,4-2.12,3.15,3.15,0,0,1,2.15.92,2.13,2.13,0,0,1,.58,1.64,2.34,2.34,0,0,1-.38,1.06C486.69,117,487.54,115.63,487.11,116.3Z"/><path class="cls-1" d="M480.41,113.79a3.57,3.57,0,0,1-4.52.45,1.63,1.63,0,0,1-.7-1.69A2.55,2.55,0,0,1,476.6,111a3.68,3.68,0,0,1,3.73.12,1.79,1.79,0,0,1,.08,2.67C480,114.31,480.87,113.26,480.41,113.79Z"/><path class="cls-1" d="M475.29,111a3.72,3.72,0,0,1-2.12.75,3.33,3.33,0,0,1-2.22-.69,1.61,1.61,0,0,1-.59-1.72,2.56,2.56,0,0,1,1.56-1.45c1.21-.5,3.05-.53,3.88.37a1.86,1.86,0,0,1-.51,2.74Z"/><path class="cls-1" d="M471,107.51a3.29,3.29,0,0,1-2.21.25,1.86,1.86,0,0,1-1.52-1.4,1.61,1.61,0,0,1,1.06-1.58,4.06,4.06,0,0,1,2.51-.27c.89.2,1.5.75,1.44,1.43a2.12,2.12,0,0,1-1.28,1.57Z"/><path class="cls-1" d="M468.45,104a2.33,2.33,0,0,1-2.11-.39,1,1,0,0,1,.16-1.64,2.76,2.76,0,0,1,2.29-.32,1.62,1.62,0,0,1,.95.61.84.84,0,0,1,0,.89A2.13,2.13,0,0,1,468.45,104Z"/><path class="cls-1" d="M467.39,100.79a2,2,0,0,1-2-.77,1.1,1.1,0,0,1,.63-1.5,2.82,2.82,0,0,1,2.31,0c.7.32,1,.93.64,1.49a2.31,2.31,0,0,1-1.6.8Z"/><path class="cls-1" d="M547.71,72.27a1,1,0,0,1,.72-1.41,1.7,1.7,0,0,1,1.88.64c.29.5,0,1.14-.7,1.38a1.65,1.65,0,0,1-1.9-.61C547.55,72,547.86,72.56,547.71,72.27Z"/><path class="cls-1" d="M543.79,73.28a1.06,1.06,0,0,1,.91-1.37,1.63,1.63,0,0,1,1.77.75c.24.52-.07,1.14-.82,1.34A1.57,1.57,0,0,1,543.79,73.28Z"/><path class="cls-1" d="M539.77,74c-.15-.56.28-1.2,1.11-1.31a1.57,1.57,0,0,1,1.57.71,1,1,0,0,1-.51,1.29,1.69,1.69,0,0,1-1.91-.26,1,1,0,0,1-.26-.43Z"/><path class="cls-1" d="M535.69,74.56a1.11,1.11,0,0,1,.9-1.19,1.55,1.55,0,0,1,1.82.71c.24.57-.18,1.27-1,1.41a1.55,1.55,0,0,1-1.58-.66,1.43,1.43,0,0,1-.09-.27C535.59,74,535.8,75.16,535.69,74.56Z"/><path class="cls-1" d="M531.58,74.92a1.16,1.16,0,0,1,1-1.16,1.51,1.51,0,0,1,1.74.71c.23.56-.13,1.22-.94,1.41a1.56,1.56,0,0,1-1.66-.6.85.85,0,0,1-.12-.36Z"/><path class="cls-1" d="M527.45,75.14A1.26,1.26,0,0,1,528.77,74,1.3,1.3,0,0,1,530.24,75a1.25,1.25,0,0,1-1.32,1.14,1.29,1.29,0,0,1-1.47-1C527.42,74.54,527.48,75.76,527.45,75.14Z"/><path class="cls-1" d="M523.32,75.29a1.44,1.44,0,1,1,1.43,1.06,1.26,1.26,0,0,1-1.43-1.06C523.3,74.68,523.33,75.9,523.32,75.29Z"/><path class="cls-1" d="M519.18,75.39a1.44,1.44,0,1,1,1.42,1.07,1.27,1.27,0,0,1-1.42-1.07Z"/><path class="cls-1" d="M515.05,75.49a1.27,1.27,0,0,1,1.38-1.14,1.26,1.26,0,0,1,1.41,1.07,1.29,1.29,0,0,1-1.37,1.14,1.28,1.28,0,0,1-1.42-1.07C515,74.88,515.06,76.1,515.05,75.49Z"/><path class="cls-1" d="M510.92,75.62a1.26,1.26,0,0,1,1.35-1.16,1.13,1.13,0,1,1-1.35,1.16C510.88,75,511,76.23,510.92,75.62Z"/><path class="cls-1" d="M506.79,75.83c-.06-.61.52-1.14,1.31-1.19a1.32,1.32,0,0,1,1.48,1,1.26,1.26,0,0,1-1.31,1.17,1.32,1.32,0,0,1-1.48-1Z"/><path class="cls-1" d="M502.67,76.15c-.09-.57.44-1.17,1.28-1.23a1.43,1.43,0,0,1,1.46.81,1.06,1.06,0,0,1-.73,1.28,1.63,1.63,0,0,1-1.84-.44,1,1,0,0,1-.17-.42Z"/><path class="cls-1" d="M498.58,76.63c-.15-.59.38-1.23,1.27-1.28a1.41,1.41,0,0,1,1.45.79,1,1,0,0,1-.68,1.28,1.62,1.62,0,0,1-1.9-.48A.79.79,0,0,1,498.58,76.63Z"/><path class="cls-1" d="M494.53,77.29c-.19-.53.19-1.15,1-1.31a1.5,1.5,0,0,1,1.72.77,1.08,1.08,0,0,1-1,1.36,1.53,1.53,0,0,1-1.74-.82Z"/><path class="cls-1" d="M490.56,78.18c-.25-.52.06-1.15.83-1.36a1.59,1.59,0,0,1,1.81.66,1,1,0,0,1-.81,1.41,1.6,1.6,0,0,1-1.83-.71C490.43,77.9,490.7,78.47,490.56,78.18Z"/><path class="cls-1" d="M486.71,79.32a.94.94,0,0,1,.57-1.38,1.7,1.7,0,0,1,2,.51,1,1,0,0,1-.68,1.47,1.7,1.7,0,0,1-1.87-.6C486.54,79,486.89,79.6,486.71,79.32Z"/><path class="cls-1" d="M483,80.71a.9.9,0,0,1,.42-1.43,1.77,1.77,0,0,1,2,.36.92.92,0,0,1-.33,1.48A1.79,1.79,0,0,1,483,80.71Z"/><path class="cls-1" d="M479.53,82.35a.89.89,0,0,1,.27-1.48,1.82,1.82,0,0,1,2,.28.91.91,0,0,1-.24,1.51A1.87,1.87,0,0,1,479.53,82.35Z"/><path class="cls-1" d="M476.26,84.21a.85.85,0,0,1,.08-1.47,1.84,1.84,0,0,1,2,.13.89.89,0,0,1,0,1.49,1.88,1.88,0,0,1-2.11-.15Z"/><path class="cls-1" d="M473.25,86.29a.85.85,0,0,1-.05-1.53,1.88,1.88,0,0,1,1.81-.05A1,1,0,0,1,475.6,86a1.15,1.15,0,0,1-.72.54,2.3,2.3,0,0,1-1.63-.25Z"/><path class="cls-1" d="M471,88.78c-.67-.25-1-.84-.67-1.35a1.78,1.78,0,0,1,2-.44c.69.27,1.13.93.72,1.46A1.93,1.93,0,0,1,471,88.78Z"/><path class="cls-1" d="M469.18,91.49c-.73-.19-1.19-.78-.88-1.33a1.72,1.72,0,0,1,1.93-.54c.69.2,1.2.77.93,1.31a1.79,1.79,0,0,1-2,.56Z"/><path class="cls-1" d="M467.93,94.34c-.76-.12-1.34-.66-1.13-1.23a1.61,1.61,0,0,1,1.78-.73c.75.12,1.41.66,1.21,1.24s-1.11.84-1.86.72Z"/><path class="cls-1" d="M467.27,97.28c-.79,0-1.45-.5-1.38-1.09s.84-1,1.62-.92,1.49.49,1.45,1.07-.92,1-1.69.94Z"/><path class="cls-1" d="M472.8,39.17a4.39,4.39,0,0,0-4.42-.22,1.92,1.92,0,0,0-.51,3.25,4.78,4.78,0,0,0,4.53.81,2.32,2.32,0,0,0,1.48-1.38,1.92,1.92,0,0,0-.26-1.62,3,3,0,0,0-.82-.84Z"/><path class="cls-1" d="M468,43.19a3.78,3.78,0,0,0-2.34-.35A2.64,2.64,0,0,0,463.82,44a1.45,1.45,0,0,0,.16,1.68,3.25,3.25,0,0,0,2,1c1.27.2,2.76-.16,3.25-1.1S469,43.7,468,43.19Z"/><path class="cls-1" d="M464.78,47a4,4,0,0,0-2.23-.11,2.49,2.49,0,0,0-1.64,1.21,1.44,1.44,0,0,0,.28,1.67,3.17,3.17,0,0,0,2.05.87c1.31.12,2.95-.34,3.27-1.36s-.59-1.89-1.73-2.28Z"/><path class="cls-1" d="M462.59,51.26a3.13,3.13,0,0,0-2.06.36,1.39,1.39,0,0,0-.7,1.65,2.05,2.05,0,0,0,1.67,1.12,3.78,3.78,0,0,0,2.36-.43c.69-.41,1-1.06.61-1.65a2.71,2.71,0,0,0-1.88-1.05Z"/><path class="cls-1" d="M462,55.07a1.83,1.83,0,0,0-1.69.91c-.23.56.17,1.17.9,1.4a2.66,2.66,0,0,0,2.18-.32,1.11,1.11,0,0,0,.55-.8.89.89,0,0,0-.44-.78A2.47,2.47,0,0,0,462,55.07Z"/><path class="cls-1" d="M462.56,58.17c-.77.14-1.4.62-1.4,1.2s.51,1,1.26,1.16a2.45,2.45,0,0,0,2.05-.6.88.88,0,0,0-.12-1.48,2.59,2.59,0,0,0-1.79-.28Z"/><path class="cls-1" d="M481.9,71.26c-.19.52.17,1.11.92,1.24a1.49,1.49,0,0,0,1.65-.78,1,1,0,0,0-.91-1.28A1.52,1.52,0,0,0,481.9,71.26Z"/><path class="cls-1" d="M478.14,70.48c-.26.5,0,1.11.75,1.29a1.57,1.57,0,0,0,1.75-.67.94.94,0,0,0-.7-1.31,1.61,1.61,0,0,0-1.8.69C478,70.76,478.27,70.2,478.14,70.48Z"/><path class="cls-1" d="M474.5,69.44c-.39.52-.09,1.16.67,1.37a1.68,1.68,0,0,0,1.63-.43.87.87,0,0,0-.08-1.3,1.33,1.33,0,0,0-.89-.29,1.82,1.82,0,0,0-1,.36,1.23,1.23,0,0,0-.31.29C474.31,69.7,474.7,69.19,474.5,69.44Z"/><path class="cls-1" d="M471.3,67.85a.81.81,0,0,0,.05,1.38,1.75,1.75,0,0,0,2-.15.86.86,0,0,0-.05-1.47A1.85,1.85,0,0,0,471.3,67.85Z"/><path class="cls-1" d="M468.47,65.92c-.55.37-.69,1-.16,1.41a1.77,1.77,0,0,0,2,0c.52-.36.7-1,.21-1.41a1.87,1.87,0,0,0-2,0Z"/><path class="cls-1" d="M466,63.73c-.62.31-.88.94-.43,1.39a1.77,1.77,0,0,0,1.92.18c.61-.31.94-1,.49-1.42a1.85,1.85,0,0,0-2-.15Z"/><path class="cls-1" d="M464.09,61.3c-.69.24-1.06.84-.71,1.34a1.65,1.65,0,0,0,1.85.38c.65-.24,1.09-.83.79-1.33a1.75,1.75,0,0,0-1.93-.39C463.72,61.43,464.46,61.18,464.09,61.3Z"/><path class="cls-1" d="M435.4,69.25c7.86-7.21,24.7-4.88,19.6,5.55-2.32,4.75-10.39,6-14.3,2.35s.64-5.53,2.43-4.53c.52.3,2.36,1.48,3.1,1.22,1.85-.64.91-3.16-1.58-3.34-6.23-.61-9.73,4.87-8.85,8.51,1.13,4.7,8.33,5.94,14,6.07,14.27.34,25.84-8.28,38.9-11.37a62.93,62.93,0,0,1,16.85-1.64c.81,0,9.08.6,9,1h0c0,.12-7.32-.12-8.09-.12a66.9,66.9,0,0,0-15.65,2.18c-10,2.7-18.13,8-27.88,11.07-7.47,2.37-17.68,3.17-25.08.17C429.41,83,429.66,74.51,435.4,69.25Z"/><path class="cls-1" d="M483.69,42.26c13-2.73,25.27,7,11.74,13.77-6.15,3.09-14.12.53-14.2-4.45-.09-5.17,5.42-4.55,6-2.86.18.5.7,2.37,1.55,2.48,2.14.28,3.57-2.35,1.61-3.64-4.75-3.37-12.55-.17-15,3.41-3.19,4.63,1.79,9,6.56,11.7,13.56,7.63,32.87,2.67,43.51,10-14.11-3.78-22.42-1.28-33.42-3-8.43-1.32-17.81-5.28-21.44-11.26C466.49,51.54,474.18,44.24,483.69,42.26Z"/><path class="cls-1" d="M542.62,47.42c5.19-5.42,17.44-4.31,14.43,3.33-1.36,3.48-7.07,4.66-10.11,2.16s.1-4,1.45-3.33c.39.2,1.79,1,2.31.77,1.28-.52.45-2.29-1.35-2.34-4.52-.23-6.68,3.81-5.82,6.39,1.11,3.33,6.36,4,10.48,3.89,11.69-.35,18.83-8.86,28.8-8.45-9.67,2.46-12.52,6.31-19.32,8.85-5.22,1.94-12.51,2.85-18,1C539.19,57.46,538.83,51.38,542.62,47.42Z"/><path class="cls-1" d="M414.31,101.67c6.7,3.23,16.43-.75,10.59-6.38-2.66-2.56-7.93-2.12-9.38.73s1.83,3.3,2.66,2.41c.25-.26,1.07-1.27,1.59-1.22,1.3.11,1.38,1.8-.1,2.29C416,100.82,412.43,98,412,95.62c-.53-3.06,3.56-4.91,7-5.86,8.67-2.37,18,1.16,26.82,1.07a39.88,39.88,0,0,0,10.77-1.55c.48-.15,5.41-1.75,5.23-2h0c-.05-.07-4.47,1.19-4.94,1.3a43.74,43.74,0,0,1-10.17,1c-6.86-.13-13.19-2.13-20-2.55-5.2-.33-11.68.74-15.43,3.7C407.07,94.15,409.43,99.31,414.31,101.67Z"/><path class="cls-1" d="M488.42,112.2c15.47,3.31,30.89-8.32,15.11-16.53-7.17-3.73-16.93-.67-17.39,5.32-.48,6.22,6.19,5.48,7.06,3.45.26-.59,1-2.85,2.05-3,2.59-.33,4.12,2.84,1.67,4.39-5.95,4-15.1.17-17.8-4.14-3.5-5.57,2.84-10.8,8.74-14,14.68-8.14,35.46-5.37,52.3-9.23A70.35,70.35,0,0,0,559.54,71c.81-.48,9-5.58,8.4-6h0c-.15-.11-7.6,4.12-8.41,4.54a79,79,0,0,1-18.65,6.24c-13.26,2.62-27,1.49-40.39,3.54-10.24,1.58-21.79,6.31-26.59,13.49C468.42,101,477.13,109.79,488.42,112.2Z"/><path class="cls-1" d="M414.7,68.92c-2.54-1.52-7.11-1.35-8.51,2.24-.89,2.29,1.41,4.52,4.12,6.19,3.33,2.06,10.35,4.85,16.4,4.39C421.49,78.6,417.59,70.64,414.7,68.92Z"/><path class="cls-1" d="M409.61,88.64c-2.65.08-4.37-1.83-3.83-3.54.63-2,3.06-3.62,5.92-3.75A32.64,32.64,0,0,1,425,84.16C419.53,84.35,412.63,88.55,409.61,88.64Z"/><path class="cls-1" d="M429.37,69.86c-.73-1.91-3.77-3.12-5.85-2.71-2.38.47-3.76,2.24-3,4.3A18.08,18.08,0,0,0,428.38,81C426.89,77,430.21,72,429.37,69.86Z"/><path class="cls-1" d="M453.82,119.51a61.26,61.26,0,0,0-2.93-5.38,11.85,11.85,0,0,1-2-4.67,4.09,4.09,0,0,1,2.54-4.38,8.22,8.22,0,0,1,1.23-.37c.24.6.51,1.19.77,1.78,1.32,2.93,3.81,9.35,3.75,12.91.95-2,.43-6.48,0-8a63.21,63.21,0,0,0-2.78-7,9.18,9.18,0,0,1,2.13.17,11.66,11.66,0,0,1,4.34,2.07,10.8,10.8,0,0,1,3.74,4.43,6,6,0,0,1-.2,5.19,13.07,13.07,0,0,1-4.33,4.22,59,59,0,0,0-5.28,3.7A7.57,7.57,0,0,0,453.82,119.51Z"/><path class="cls-1" d="M451.41,97.35c.55-2.78,2.75-5.19,5.72-7A32.88,32.88,0,0,1,461.85,88a36.59,36.59,0,0,1,4.45-1.51h0c0,.06-3.29,1.49-3.57,1.63-3.17,1.51-6.27,3.33-8.15,5.76-2.09,2.69-1.9,5.7-.93,8.57.22.68.48,1.35.76,2a9.67,9.67,0,0,0-1.76.23C451.66,102.32,450.91,99.85,451.41,97.35Z"/><path class="cls-1" d="M571.25,88a55.19,55.19,0,0,0-1.36-5.72,10.82,10.82,0,0,1-.66-4.88,4.87,4.87,0,0,1,3.71-4,8.74,8.74,0,0,1,1.29-.19c.08.63.17,1.26.27,1.88.46,3.07,1.09,9.74,0,13.23,1.46-1.78,2.22-6.32,2.23-7.81a55.51,55.51,0,0,0-.76-7.26,8.35,8.35,0,0,1,2,.47,9.68,9.68,0,0,1,3.67,2.66,9.15,9.15,0,0,1,2.41,4.9,6.52,6.52,0,0,1-1.64,5.08,16.12,16.12,0,0,1-5.41,3.53c-2.08.94-4.27,1.76-6.18,2.87A7.57,7.57,0,0,0,571.25,88Z"/><path class="cls-1" d="M575.08,65.82c.72-2.92,4.8-8.58,9.24-11.67-5.67,6.3-8.45,10.91-8.48,17a16.38,16.38,0,0,0,.18,2.09,10.4,10.4,0,0,0-1.79,0A20.7,20.7,0,0,1,575.08,65.82Z"/><path class="cls-1" d="M508.84,60.83c3.21,1.37,6.29,2.88,9.33,4.43a32.8,32.8,0,0,0,8.26,3.34c3.06.63,6.94.53,9-1.25a7.57,7.57,0,0,0,1-1.09c-1.06-.42-2.12-.86-3.15-1.29-5.17-2.14-16.59-6.44-23.33-7.41,4-.37,12.38,1.45,15,2.27,4.31,1.34,8.28,3.14,12.38,4.75a4.92,4.92,0,0,0,.3-2.14,9.3,9.3,0,0,0-2.66-4.88,19.75,19.75,0,0,0-7.3-5,21.08,21.08,0,0,0-9.87-1.3,28.1,28.1,0,0,0-9.24,3.05,94.45,94.45,0,0,1-8.52,4.13A24.71,24.71,0,0,1,508.84,60.83Z"/><path class="cls-1" d="M550.06,69.6A27.89,27.89,0,0,0,564.94,66a39.85,39.85,0,0,0,5.78-4c.34-.28,4.35-3.75,4.14-3.94h0c-.1-.06-3.78,2.81-4.11,3a36.78,36.78,0,0,1-13.25,6.37c-5.7,1.28-11.33.22-16.48-1.55-1.21-.42-2.41-.87-3.59-1.34a6.06,6.06,0,0,1-.93,1.68A42.32,42.32,0,0,0,550.06,69.6Z"/><path class="cls-1" d="M667,83.17c-5.4-3.19-11.76-5.31-17.47-8.15a68.09,68.09,0,0,1-11.23-7.17,64,64,0,0,1-8.75-8.18c-1.78-2-3.5-4-5.44-5.84-.48-.48-5.18-4.66-5.84-4-.49.5,1.33,2.17,1.69,2.59,1,1.15,2,2.31,2.92,3.47,1.88,2.28,3.61,4.61,5.62,6.83a61.15,61.15,0,0,0,11.92,10.07c2.14,1.39,4.31,2.78,6.65,4,3.08,1.6,6.39,2.94,9.64,4.35C662.41,83.6,671,87,671.57,92.39c.31,3-1.81,6.07-6.19,6.58-4.81.57-9-2-9.82-5.36a4.44,4.44,0,0,1,2-4.51,6.64,6.64,0,0,1,5.57-.67,2.89,2.89,0,0,1,2,3.94,3,3,0,0,1-2,1.47l-.25,0a1.56,1.56,0,0,0-.81-1.41,3.2,3.2,0,0,0-3.49.11,1.46,1.46,0,0,0,.23,2.51,3.16,3.16,0,0,0,3.49-.11,1.42,1.42,0,0,0,.54-.9,7.81,7.81,0,0,0,.91-.08,3.21,3.21,0,0,0,2.5-2.88c.13-2.62-3.11-4.29-6.55-3.91-3.66.4-5.87,3-6.1,5.46s1.45,5.08,4.21,6.64c5.54,3.13,13.69,1.63,16.13-3C676.56,91.12,672.51,86.43,667,83.17Z"/><path class="cls-1" d="M716,115.44a4.12,4.12,0,0,0,4.2,1.51c1.78-.37,2.69-1.76,2.17-3a4.2,4.2,0,0,0-4-2.11,3.12,3.12,0,0,0-2.15.91,2.15,2.15,0,0,0-.58,1.65,2.54,2.54,0,0,0,.37,1.06C716.45,116.11,715.6,114.76,716,115.44Z"/><path class="cls-1" d="M722.73,112.92a3.57,3.57,0,0,0,4.52.45,1.61,1.61,0,0,0,.7-1.68,2.5,2.5,0,0,0-1.41-1.55,3.7,3.7,0,0,0-3.73.11,1.79,1.79,0,0,0-.08,2.67Z"/><path class="cls-1" d="M727.85,110.17a3.65,3.65,0,0,0,2.12.75,3.33,3.33,0,0,0,2.22-.69,1.61,1.61,0,0,0,.59-1.72,2.62,2.62,0,0,0-1.56-1.45c-1.21-.5-3.05-.53-3.88.37a1.86,1.86,0,0,0,.51,2.74Z"/><path class="cls-1" d="M732.17,106.64a3.36,3.36,0,0,0,2.21.26,1.89,1.89,0,0,0,1.52-1.41,1.61,1.61,0,0,0-1.06-1.57,4,4,0,0,0-2.51-.28c-.89.2-1.5.75-1.44,1.43a2.11,2.11,0,0,0,1.28,1.57Z"/><path class="cls-1" d="M734.69,103.1a2.33,2.33,0,0,0,2.11-.39,1,1,0,0,0-.16-1.64,2.79,2.79,0,0,0-2.29-.32,1.68,1.68,0,0,0-1,.62.84.84,0,0,0,0,.89A2.12,2.12,0,0,0,734.69,103.1Z"/><path class="cls-1" d="M735.75,99.92a2,2,0,0,0,2-.76,1.11,1.11,0,0,0-.63-1.51,2.82,2.82,0,0,0-2.31,0c-.7.31-1,.92-.64,1.48a2.27,2.27,0,0,0,1.6.8Z"/><path class="cls-1" d="M655.43,71.41a1,1,0,0,0-.72-1.42,1.72,1.72,0,0,0-1.88.64,1,1,0,0,0,.69,1.38,1.66,1.66,0,0,0,1.91-.6C655.59,71.13,655.28,71.69,655.43,71.41Z"/><path class="cls-1" d="M659.35,72.41a1.05,1.05,0,0,0-.91-1.36,1.61,1.61,0,0,0-1.77.75c-.24.51.07,1.13.82,1.34A1.58,1.58,0,0,0,659.35,72.41Z"/><path class="cls-1" d="M663.37,73.16a1.14,1.14,0,0,0-1.11-1.31,1.57,1.57,0,0,0-1.57.71,1,1,0,0,0,.51,1.3,1.73,1.73,0,0,0,1.91-.26,1.05,1.05,0,0,0,.26-.44C663.45,72.86,663.28,73.46,663.37,73.16Z"/><path class="cls-1" d="M667.45,73.69a1.12,1.12,0,0,0-.9-1.19,1.55,1.55,0,0,0-1.82.71c-.24.58.18,1.28,1,1.41a1.54,1.54,0,0,0,1.58-.66,1.07,1.07,0,0,0,.09-.27C667.55,73.09,667.34,74.3,667.45,73.69Z"/><path class="cls-1" d="M671.56,74.05a1.16,1.16,0,0,0-1-1.16,1.52,1.52,0,0,0-1.74.72c-.23.55.13,1.22.94,1.4a1.55,1.55,0,0,0,1.66-.6.77.77,0,0,0,.12-.36Z"/><path class="cls-1" d="M675.69,74.28a1.26,1.26,0,0,0-1.32-1.17,1.31,1.31,0,0,0-1.47,1.06,1.25,1.25,0,0,0,1.32,1.15,1.29,1.29,0,0,0,1.47-1Z"/><path class="cls-1" d="M679.82,74.42a1.44,1.44,0,1,0-1.43,1.06,1.26,1.26,0,0,0,1.43-1.06C679.84,73.81,679.81,75,679.82,74.42Z"/><path class="cls-1" d="M684,74.52a1.44,1.44,0,1,0-1.42,1.08A1.28,1.28,0,0,0,684,74.52C684,73.91,684,75.13,684,74.52Z"/><path class="cls-1" d="M688.09,74.62a1.28,1.28,0,0,0-1.38-1.14,1.26,1.26,0,0,0-1.41,1.07,1.29,1.29,0,0,0,1.37,1.14,1.27,1.27,0,0,0,1.42-1.07C688.11,74,688.08,75.23,688.09,74.62Z"/><path class="cls-1" d="M692.22,74.75a1.24,1.24,0,0,0-1.35-1.15,1.14,1.14,0,1,0,1.35,1.15C692.26,74.14,692.19,75.36,692.22,74.75Z"/><path class="cls-1" d="M696.35,75c.06-.61-.52-1.14-1.31-1.18a1.31,1.31,0,0,0-1.48,1A1.26,1.26,0,0,0,694.87,76a1.32,1.32,0,0,0,1.48-1Z"/><path class="cls-1" d="M700.47,75.28c.09-.57-.44-1.17-1.28-1.22a1.41,1.41,0,0,0-1.46.81,1.06,1.06,0,0,0,.72,1.28,1.66,1.66,0,0,0,1.85-.45,1,1,0,0,0,.17-.42Z"/><path class="cls-1" d="M704.56,75.76c.15-.59-.39-1.23-1.27-1.28a1.44,1.44,0,0,0-1.45.79,1,1,0,0,0,.68,1.28,1.61,1.61,0,0,0,1.9-.47A.83.83,0,0,0,704.56,75.76Z"/><path class="cls-1" d="M708.61,76.43c.19-.54-.2-1.16-1-1.32a1.53,1.53,0,0,0-1.73.77,1.09,1.09,0,0,0,1,1.36,1.53,1.53,0,0,0,1.74-.81C708.71,76.13,708.51,76.72,708.61,76.43Z"/><path class="cls-1" d="M712.58,77.32c.25-.53-.07-1.16-.83-1.37a1.59,1.59,0,0,0-1.81.66,1,1,0,0,0,.81,1.42,1.63,1.63,0,0,0,1.83-.71C712.71,77,712.44,77.61,712.58,77.32Z"/><path class="cls-1" d="M716.43,78.45a.93.93,0,0,0-.57-1.37,1.67,1.67,0,0,0-2,.51,1,1,0,0,0,.68,1.47,1.72,1.72,0,0,0,1.87-.61Z"/><path class="cls-1" d="M720.12,79.84a.9.9,0,0,0-.42-1.42,1.78,1.78,0,0,0-2,.35.93.93,0,0,0,.33,1.49A1.81,1.81,0,0,0,720.12,79.84Z"/><path class="cls-1" d="M723.61,81.48a.88.88,0,0,0-.27-1.47,1.82,1.82,0,0,0-2,.28.9.9,0,0,0,.24,1.5A1.85,1.85,0,0,0,723.61,81.48Z"/><path class="cls-1" d="M726.88,83.35a.86.86,0,0,0-.08-1.48,1.84,1.84,0,0,0-2,.14.89.89,0,0,0,0,1.49,1.94,1.94,0,0,0,2.12-.15Z"/><path class="cls-1" d="M729.89,85.42a.85.85,0,0,0,.05-1.53,1.88,1.88,0,0,0-1.81,0,1,1,0,0,0-.59,1.29,1.08,1.08,0,0,0,.72.54,2.11,2.11,0,0,0,1.17,0,1.73,1.73,0,0,0,.46-.2C730.21,85.23,729.57,85.62,729.89,85.42Z"/><path class="cls-1" d="M732.19,87.92c.67-.26,1-.85.66-1.36a1.76,1.76,0,0,0-2-.43c-.69.26-1.13.92-.72,1.45A1.93,1.93,0,0,0,732.19,87.92Z"/><path class="cls-1" d="M734,90.63c.73-.2,1.19-.79.88-1.34a1.74,1.74,0,0,0-1.94-.54c-.68.21-1.19.77-.92,1.32s1.26.75,2,.56C734.35,90.52,733.56,90.73,734,90.63Z"/><path class="cls-1" d="M735.21,93.47c.76-.12,1.34-.65,1.13-1.23a1.61,1.61,0,0,0-1.78-.73c-.75.13-1.41.67-1.21,1.24s1.11.84,1.86.72Z"/><path class="cls-1" d="M735.87,96.41c.79,0,1.45-.5,1.37-1.09s-.83-1-1.61-.91-1.49.48-1.45,1.06.92,1,1.69.94Z"/><path class="cls-1" d="M730.34,38.31a4.39,4.39,0,0,1,4.42-.23,1.92,1.92,0,0,1,.51,3.25,4.78,4.78,0,0,1-4.53.81,2.27,2.27,0,0,1-1.48-1.38,1.89,1.89,0,0,1,.26-1.61,2.84,2.84,0,0,1,.82-.84C731,37.82,729.65,38.79,730.34,38.31Z"/><path class="cls-1" d="M735.11,42.32a3.78,3.78,0,0,1,2.34-.35,2.64,2.64,0,0,1,1.87,1.15,1.45,1.45,0,0,1-.16,1.68,3.25,3.25,0,0,1-2,1c-1.27.2-2.76-.15-3.25-1.1s.19-1.86,1.18-2.38Z"/><path class="cls-1" d="M738.36,46.12a3.93,3.93,0,0,1,2.23-.1,2.47,2.47,0,0,1,1.64,1.2A1.46,1.46,0,0,1,742,48.9a3.22,3.22,0,0,1-2.05.87c-1.31.12-2.95-.34-3.27-1.37s.59-1.88,1.73-2.28Z"/><path class="cls-1" d="M740.55,50.39a3.08,3.08,0,0,1,2.06.37,1.39,1.39,0,0,1,.7,1.65,2.06,2.06,0,0,1-1.68,1.11,3.76,3.76,0,0,1-2.35-.43c-.69-.41-1-1.06-.61-1.65a2.75,2.75,0,0,1,1.88-1Z"/><path class="cls-1" d="M741.12,54.2a1.83,1.83,0,0,1,1.69.91c.23.56-.17,1.17-.9,1.41a2.63,2.63,0,0,1-2.18-.33,1.11,1.11,0,0,1-.55-.8.89.89,0,0,1,.44-.78A2.54,2.54,0,0,1,741.12,54.2Z"/><path class="cls-1" d="M740.58,57.3c.77.14,1.4.62,1.4,1.21s-.52,1-1.26,1.15a2.51,2.51,0,0,1-2.06-.59.89.89,0,0,1,.13-1.49,2.64,2.64,0,0,1,1.79-.28Z"/><path class="cls-1" d="M721.24,70.4c.19.51-.17,1.11-.92,1.23a1.47,1.47,0,0,1-1.65-.78,1,1,0,0,1,.91-1.27A1.51,1.51,0,0,1,721.24,70.4Z"/><path class="cls-1" d="M725,69.61c.26.51,0,1.11-.75,1.29a1.57,1.57,0,0,1-1.75-.66,1,1,0,0,1,.7-1.32,1.61,1.61,0,0,1,1.8.69C725.14,69.89,724.87,69.34,725,69.61Z"/><path class="cls-1" d="M728.64,68.58c.39.51.09,1.16-.67,1.37a1.68,1.68,0,0,1-1.63-.44.87.87,0,0,1,.08-1.3,1.44,1.44,0,0,1,.89-.29,1.9,1.9,0,0,1,1,.36,1.77,1.77,0,0,1,.31.3C728.83,68.84,728.44,68.32,728.64,68.58Z"/><path class="cls-1" d="M731.84,67a.81.81,0,0,1-.05,1.38,1.74,1.74,0,0,1-2-.15.86.86,0,0,1,0-1.47A1.85,1.85,0,0,1,731.84,67Z"/><path class="cls-1" d="M734.66,65.05c.56.37.7,1,.17,1.42a1.79,1.79,0,0,1-2,0c-.52-.36-.7-1-.21-1.41a1.85,1.85,0,0,1,2,0Z"/><path class="cls-1" d="M737.1,62.86c.61.31.88.94.43,1.39a1.75,1.75,0,0,1-1.92.18c-.61-.31-.94-1-.49-1.42a1.85,1.85,0,0,1,2-.15C737.43,63,736.76,62.7,737.1,62.86Z"/><path class="cls-1" d="M739.05,60.44c.69.24,1.06.83.71,1.33a1.65,1.65,0,0,1-1.85.38c-.65-.24-1.09-.82-.79-1.33a1.73,1.73,0,0,1,1.93-.38Z"/><path class="cls-1" d="M767.74,68.39c-7.86-7.21-24.7-4.89-19.6,5.55,2.32,4.74,10.39,6,14.3,2.34s-.64-5.53-2.43-4.52c-.52.29-2.36,1.47-3.1,1.22-1.85-.64-.91-3.17,1.58-3.34,6.23-.61,9.73,4.86,8.85,8.5-1.13,4.71-8.33,6-14,6.07-14.27.34-25.84-8.28-38.9-11.37a62.52,62.52,0,0,0-16.85-1.63c-.81,0-9.08.6-9,1h0c0,.12,7.32-.12,8.09-.11a67.42,67.42,0,0,1,15.65,2.17c10,2.71,18.13,8,27.88,11.07,7.47,2.38,17.68,3.17,25.08.18C773.73,82.12,773.48,73.65,767.74,68.39Z"/><path class="cls-1" d="M719.45,41.39c-13-2.72-25.28,7-11.74,13.77,6.15,3.1,14.12.54,14.2-4.45.09-5.17-5.42-4.55-6-2.85-.18.49-.7,2.36-1.55,2.48-2.14.28-3.57-2.36-1.61-3.65,4.75-3.37,12.55-.17,15,3.41,3.19,4.63-1.79,9-6.56,11.71-13.56,7.63-32.87,2.66-43.51,10,14.11-3.79,22.42-1.28,33.42-3,8.43-1.33,17.81-5.28,21.44-11.27C736.65,50.67,729,43.38,719.45,41.39Z"/><path class="cls-1" d="M660.52,46.55c-5.19-5.42-17.44-4.31-14.44,3.34,1.37,3.47,7.08,4.65,10.12,2.15s-.1-4-1.45-3.32c-.39.19-1.79,1-2.31.77-1.28-.52-.45-2.3,1.35-2.34,4.52-.24,6.68,3.8,5.82,6.38-1.11,3.34-6.36,4-10.48,3.89-11.69-.34-18.83-8.85-28.8-8.45,9.67,2.46,12.52,6.31,19.32,8.85,5.22,2,12.51,2.86,18,1C664,56.59,664.31,50.51,660.52,46.55Z"/><path class="cls-1" d="M788.83,100.8c-6.7,3.23-16.43-.75-10.59-6.38,2.65-2.56,7.93-2.11,9.38.73s-1.83,3.3-2.66,2.41c-.25-.26-1.07-1.26-1.59-1.22-1.3.11-1.38,1.8.1,2.29,3.67,1.32,7.23-1.51,7.64-3.87.53-3.06-3.56-4.92-7-5.86-8.67-2.38-18,1.15-26.82,1.07a40.28,40.28,0,0,1-10.77-1.56c-.48-.14-5.41-1.75-5.23-2h0c0-.06,4.47,1.19,4.94,1.3a43.75,43.75,0,0,0,10.17,1.05c6.86-.14,13.19-2.14,20-2.56,5.2-.32,11.68.74,15.43,3.7C796.07,93.29,793.71,98.45,788.83,100.8Z"/><path class="cls-1" d="M714.72,111.34c-15.47,3.3-30.89-8.33-15.11-16.53,7.17-3.73,16.93-.67,17.39,5.32.48,6.21-6.19,5.48-7.06,3.44-.26-.59-1-2.84-2.05-3-2.59-.34-4.12,2.83-1.67,4.38,5.95,4,15.1.18,17.8-4.14,3.5-5.57-2.84-10.8-8.74-14-14.68-8.14-35.46-5.37-52.3-9.23a70.35,70.35,0,0,1-19.38-7.47c-.81-.48-9-5.58-8.4-6h0c.15-.1,7.6,4.13,8.41,4.54a78.52,78.52,0,0,0,18.65,6.24c13.26,2.62,27,1.49,40.39,3.55,10.24,1.57,21.79,6.3,26.59,13.49C734.72,100.14,726,108.93,714.72,111.34Z"/><path class="cls-1" d="M788.44,68.05c2.54-1.51,7.11-1.34,8.51,2.24.89,2.29-1.41,4.52-4.12,6.2-3.33,2.06-10.35,4.85-16.4,4.39C781.65,77.74,785.55,69.78,788.44,68.05Z"/><path class="cls-1" d="M793.53,87.77c2.65.08,4.37-1.83,3.83-3.54-.63-2-3.06-3.62-5.92-3.74a32.31,32.31,0,0,0-13.3,2.81C783.61,83.48,790.51,87.68,793.53,87.77Z"/><path class="cls-1" d="M773.77,69c.73-1.9,3.77-3.12,5.85-2.71,2.38.48,3.76,2.25,3,4.3a18.08,18.08,0,0,1-7.88,9.52C776.25,76.17,772.93,71.16,773.77,69Z"/><path class="cls-1" d="M749.32,118.64c.86-1.82,1.87-3.61,2.93-5.38a11.85,11.85,0,0,0,2-4.67,4.1,4.1,0,0,0-2.54-4.38,8.22,8.22,0,0,0-1.23-.37c-.25.6-.51,1.2-.77,1.79-1.32,2.93-3.81,9.35-3.75,12.9-1-1.94-.43-6.48,0-7.94a61.68,61.68,0,0,1,2.78-7,8.18,8.18,0,0,0-2.13.17,11.62,11.62,0,0,0-4.35,2.06,11,11,0,0,0-3.73,4.43,6,6,0,0,0,.2,5.19,13.1,13.1,0,0,0,4.33,4.23,56.9,56.9,0,0,1,5.28,3.69A7.59,7.59,0,0,1,749.32,118.64Z"/><path class="cls-1" d="M751.73,96.48c-.55-2.78-2.75-5.19-5.72-7a31.91,31.91,0,0,0-4.72-2.34,36.59,36.59,0,0,0-4.45-1.51h0c0,.06,3.29,1.5,3.57,1.63,3.17,1.51,6.27,3.34,8.15,5.76,2.09,2.7,1.9,5.7.93,8.57-.22.68-.48,1.35-.76,2a8.81,8.81,0,0,1,1.76.22C751.48,101.46,752.23,99,751.73,96.48Z"/><path class="cls-1" d="M631.89,87.1a54.41,54.41,0,0,1,1.36-5.71,10.86,10.86,0,0,0,.66-4.89,4.86,4.86,0,0,0-3.71-3.94,8.74,8.74,0,0,0-1.29-.19c-.08.63-.17,1.25-.27,1.87-.46,3.07-1.09,9.75,0,13.23-1.46-1.77-2.22-6.31-2.24-7.81a57.49,57.49,0,0,1,.77-7.26,8.48,8.48,0,0,0-2,.48,9.7,9.7,0,0,0-3.66,2.65A9.11,9.11,0,0,0,619,80.44a6.49,6.49,0,0,0,1.64,5.07A16.12,16.12,0,0,0,626.07,89c2.08.94,4.27,1.77,6.18,2.88A7.6,7.6,0,0,1,631.89,87.1Z"/><path class="cls-1" d="M628.06,65c-.72-2.91-4.8-8.58-9.24-11.66,5.67,6.29,8.45,10.91,8.48,17a16.22,16.22,0,0,1-.18,2.09,9.54,9.54,0,0,1,1.79,0A20.73,20.73,0,0,0,628.06,65Z"/><path class="cls-1" d="M694.3,60c-3.21,1.37-6.29,2.88-9.33,4.44a32.78,32.78,0,0,1-8.26,3.33c-3.06.63-6.94.54-9-1.24a7.13,7.13,0,0,1-1.05-1.1c1.06-.42,2.11-.85,3.15-1.28C675,62,686.38,57.66,693.12,56.7c-4-.38-12.38,1.45-15,2.27-4.31,1.33-8.28,3.13-12.38,4.74a4.9,4.9,0,0,1-.3-2.14,9.29,9.29,0,0,1,2.65-4.87,19.76,19.76,0,0,1,7.31-5,21,21,0,0,1,9.87-1.31,27.88,27.88,0,0,1,9.24,3.06A94.39,94.39,0,0,0,703,57.61,24.71,24.71,0,0,0,694.3,60Z"/><path class="cls-1" d="M653.08,68.73a27.8,27.8,0,0,1-14.88-3.62,39,39,0,0,1-5.78-4c-.34-.28-4.35-3.76-4.14-3.94h0c.1,0,3.78,2.81,4.11,3a36.78,36.78,0,0,0,13.25,6.37c5.7,1.28,11.32.23,16.48-1.55,1.21-.42,2.41-.87,3.59-1.34a6.06,6.06,0,0,0,.93,1.68A42.32,42.32,0,0,1,653.08,68.73Z"/><path class="cls-1" d="M606.64,66.76c.06,2.24-2.84,5.06-7.45,4.12-3-.6-3.88-2-3.93-5.69,0-3.17,5.33-11.35,5.33-11.35S606.54,62.69,606.64,66.76Z"/><path class="cls-1" d="M584.82,58.51c-1.5,1.44-.43,3.42,1.66,4a7.88,7.88,0,0,0,7.11-1.29,14.5,14.5,0,0,0,4.2-8.92C594.66,55.29,586.54,56.88,584.82,58.51Z"/><path class="cls-1" d="M615.14,57.59a3,3,0,0,1-.3,4.72,5.42,5.42,0,0,1-6.14-.62c-2.16-1.87-5.23-5.11-5.75-9.51C606.27,55.12,613.31,56,615.14,57.59Z"/><polygon class="cls-1" points="612.91 22.58 598.33 6.59 584.74 23.43 566 18.23 574.66 41.48 599.36 40.74 624.05 40 631.3 16.27 612.91 22.58"/><polygon class="cls-1" points="609.31 15.8 613.79 20.19 621.75 17.69 619.28 8.02 609.31 15.8"/><polygon class="cls-1" points="588.1 16.44 583.89 21.09 575.8 19.07 577.67 9.27 588.1 16.44"/><path class="cls-1" d="M635.92,13.82c0,.93-1,1.72-2.29,1.76s-2.37-.69-2.4-1.62,1-1.71,2.3-1.75S635.9,12.89,635.92,13.82Z"/><path class="cls-1" d="M623.72,5c0,1.22-1.31,2.24-3,2.29s-3.09-.89-3.13-2.1,1.31-2.24,3-2.29S623.68,3.81,623.72,5Z"/><path class="cls-1" d="M561.67,16.06c0,.93,1.1,1.65,2.4,1.61s2.32-.83,2.29-1.76-1.1-1.65-2.39-1.61S561.64,15.12,561.67,16.06Z"/><path class="cls-1" d="M573.33,6.54c0,1.21,1.43,2.15,3.12,2.1s3-1.07,3-2.29S578,4.2,576.32,4.25,573.29,5.32,573.33,6.54Z"/><path class="cls-1" d="M601.86,1.65c0,1.57-1.7,2.91-3.89,3s-4-1.16-4.07-2.73,1.7-2.92,3.89-3S601.81.07,601.86,1.65Z"/><rect class="cls-1" x="575" y="41.94" width="48.89" height="3.63" transform="translate(-1.04 18.03) rotate(-1.72)"/><path class="cls-1" d="M1200,78.26s-19-8-29.93-3.31c2.47-3.53,10.11-12.87-6.71-15.63,6.53,5,0,12.3-4.42,16.22H813.25V81h346c4.37,3.66,10.26,10.35,4.09,16.22,16.82-2.77,9.18-12.1,6.71-15.64C1181,86.26,1200,78.27,1200,78.26Z"/><path class="cls-1" d="M0,78.29s19,8,29.93,3.31c-2.47,3.54-10.11,12.87,6.71,15.64-6.53-5,0-12.3,4.42-16.22H386.75V75.54h-346c-4.37-3.66-10.26-10.36-4.09-16.22C19.82,62.08,27.46,71.42,29.93,75,19,70.29,0,78.29,0,78.29Z"/></svg>